<?xml version="1.0" encoding="UTF-8" standalone="no"?>
<svg
   id="Layer_1"
   data-name="Layer 1"
   viewBox="0 0 122.88 114.86"
   version="1.1"
   sodipodi:docname="vegan.svg"
   inkscape:version="1.2.1 (9c6d41e410, 2022-07-14)"
   xmlns:inkscape="http://www.inkscape.org/namespaces/inkscape"
   xmlns:sodipodi="http://sodipodi.sourceforge.net/DTD/sodipodi-0.dtd"
   xmlns="http://www.w3.org/2000/svg"
   xmlns:svg="http://www.w3.org/2000/svg">
  <sodipodi:namedview
     id="namedview11"
     pagecolor="#ffffff"
     bordercolor="#666666"
     borderopacity="1.0"
     inkscape:showpageshadow="2"
     inkscape:pageopacity="0.0"
     inkscape:pagecheckerboard="0"
     inkscape:deskcolor="#d1d1d1"
     showgrid="false"
     inkscape:zoom="7.6353822"
     inkscape:cx="61.490046"
     inkscape:cy="57.495485"
     inkscape:window-width="1920"
     inkscape:window-height="1057"
     inkscape:window-x="-8"
     inkscape:window-y="-8"
     inkscape:window-maximized="1"
     inkscape:current-layer="Layer_1" />
  <defs
     id="defs4">
    <style
       id="style2">.cls-1{fill:#01a437;}</style>
  </defs>
  <title
     id="title6">leaves</title>
  <path
     class="cls-1"
     d="M59.07,110.77C110.92,105,139.6,71.12,112.44,0c-21.29,14.9-50.39,24.6-65,44.55C57,52.94,64.89,62.23,67.08,74.37c13.19-16.08,27.63-30.72,35.23-47-7.79,39.07-20,53.84-38.78,73.81a93.64,93.64,0,0,1-4.46,9.62Zm-14.9,4C4,105-15.18,76.09,14.27,24.75c23.8,22.92,65.79,37.48,38.39,85.86a27.08,27.08,0,0,1-1.83,2.93C45.9,89.62,26.21,70.69,20.43,50.61,21.77,83.42,31.23,93,45.88,114.86c-.57,0-1.14-.06-1.71-.13Z"
     id="path8"
     style="fill:#000000;fill-opacity:1" />
</svg>
